<svg width="20" height="20" viewBox="0 0 20 20" fill="none" xmlns="http://www.w3.org/2000/svg">
<circle opacity="0.3" cx="10" cy="10" r="10" fill="url(#paint0_linear_0_24)"/>
<path d="M11.6981 12.4762L13.0377 11.1366C13.2994 10.8748 13.7238 10.8748 13.9855 11.1366L15.8948 13.0458H15.8942C16.0199 13.171 16.0909 13.3417 16.0909 13.5195C16.0909 13.6972 16.0199 13.8674 15.8942 13.9931L14.244 15.6433C13.9058 15.9875 13.3932 16.0937 12.9461 15.9132C8.94723 14.3118 5.77912 11.1437 4.17773 7.14487C3.99726 6.69777 4.10348 6.18511 4.44761 5.84695L6.09783 4.19672C6.22356 4.071 6.39372 4 6.57148 4C6.74924 4 6.91994 4.07099 7.04513 4.19672L8.95438 6.10597V6.10543C9.21612 6.36717 9.21612 6.7915 8.95438 7.05325L7.61474 8.39288C8.26776 10.3146 9.77648 11.8233 11.6982 12.4764L11.6981 12.4762Z" fill="url(#paint1_linear_0_24)"/>
<defs>
<linearGradient id="paint0_linear_0_24" x1="10.6671" y1="-0.00882616" x2="10.8055" y2="20.0746" gradientUnits="userSpaceOnUse">
<stop stop-color="white"/>
<stop offset="0.664304" stop-color="white" stop-opacity="0.3"/>
</linearGradient>
<linearGradient id="paint1_linear_0_24" x1="9.5" y1="8" x2="9.5" y2="16" gradientUnits="userSpaceOnUse">
<stop stop-color="white"/>
<stop offset="1" stop-color="white" stop-opacity="0.2"/>
</linearGradient>
</defs>
</svg>
