<svg width="133" height="56" viewBox="0 0 133 56" fill="none" xmlns="http://www.w3.org/2000/svg">
<mask id="path-1-inside-1_3451_973" fill="white">
<path d="M72.6563 6H113.8C120.52 6 123.881 5.9997 126.448 7.30762C128.706 8.45808 130.542 10.2939 131.692 12.5518C133 15.1187 133 18.4796 133 25.2002V36.7998C133 43.5204 133 46.8813 131.692 49.4482C130.542 51.7061 128.706 53.5419 126.448 54.6924C123.881 56.0003 120.52 56 113.8 56H19.2002C12.4796 56 9.1187 56.0003 6.55176 54.6924C4.29394 53.5419 2.45808 51.7061 1.30762 49.4482C-0.000304624 46.8813 0 43.5204 0 36.7998V25.2002C0 18.4796 -0.000304624 15.1187 1.30762 12.5518C2.45808 10.2939 4.29394 8.45808 6.55176 7.30762C9.1187 5.9997 12.4796 6 19.2002 6H60.6563L66.6563 0L72.6563 6Z"/>
</mask>
<path d="M72.6563 6H113.8C120.52 6 123.881 5.9997 126.448 7.30762C128.706 8.45808 130.542 10.2939 131.692 12.5518C133 15.1187 133 18.4796 133 25.2002V36.7998C133 43.5204 133 46.8813 131.692 49.4482C130.542 51.7061 128.706 53.5419 126.448 54.6924C123.881 56.0003 120.52 56 113.8 56H19.2002C12.4796 56 9.1187 56.0003 6.55176 54.6924C4.29394 53.5419 2.45808 51.7061 1.30762 49.4482C-0.000304624 46.8813 0 43.5204 0 36.7998V25.2002C0 18.4796 -0.000304624 15.1187 1.30762 12.5518C2.45808 10.2939 4.29394 8.45808 6.55176 7.30762C9.1187 5.9997 12.4796 6 19.2002 6H60.6563L66.6563 0L72.6563 6Z" fill="#181818"/>
<path d="M72.6563 6L71.9491 6.70711L72.242 7H72.6563V6ZM126.448 7.30762L126.902 6.41662L126.902 6.41661L126.448 7.30762ZM131.692 12.5518L132.583 12.0978L132.583 12.0978L131.692 12.5518ZM131.692 49.4482L132.583 49.9022L132.583 49.9022L131.692 49.4482ZM126.448 54.6924L126.902 55.5834L126.902 55.5834L126.448 54.6924ZM6.55176 54.6924L6.09775 55.5834L6.09777 55.5834L6.55176 54.6924ZM1.30762 49.4482L0.416611 49.9022L0.416617 49.9022L1.30762 49.4482ZM1.30762 12.5518L0.416617 12.0978L0.416611 12.0978L1.30762 12.5518ZM6.55176 7.30762L6.09777 6.41661L6.09775 6.41662L6.55176 7.30762ZM60.6563 6V7H61.0705L61.3634 6.70711L60.6563 6ZM66.6563 0L67.3634 -0.707107L66.6563 -1.41421L65.9491 -0.707107L66.6563 0ZM72.6563 6V7H113.8V6V5H72.6563V6ZM113.8 6V7C117.177 7 119.649 7.0007 121.6 7.16002C123.54 7.31839 124.875 7.62848 125.994 8.19862L126.448 7.30762L126.902 6.41661C125.454 5.67883 123.826 5.33512 121.763 5.16666C119.712 4.99915 117.144 5 113.8 5V6ZM126.448 7.30762L125.994 8.19862C128.064 9.2532 129.747 10.9361 130.801 13.0058L131.692 12.5518L132.583 12.0978C131.337 9.65178 129.348 7.66295 126.902 6.41662L126.448 7.30762ZM131.692 12.5518L130.801 13.0057C131.372 14.1247 131.682 15.4604 131.84 17.3997C131.999 19.3507 132 21.8234 132 25.2002H133H134C134 21.8564 134.001 19.2883 133.833 17.237C133.665 15.174 133.321 13.5457 132.583 12.0978L131.692 12.5518ZM133 25.2002H132V36.7998H133H134V25.2002H133ZM133 36.7998H132C132 40.1766 131.999 42.6493 131.84 44.6003C131.682 46.5396 131.372 47.8753 130.801 48.9943L131.692 49.4482L132.583 49.9022C133.321 48.4543 133.665 46.826 133.833 44.763C134.001 42.7117 134 40.1436 134 36.7998H133ZM131.692 49.4482L130.801 48.9942C129.747 51.0639 128.064 52.7468 125.994 53.8014L126.448 54.6924L126.902 55.5834C129.348 54.3371 131.337 52.3482 132.583 49.9022L131.692 49.4482ZM126.448 54.6924L125.994 53.8014C124.875 54.3715 123.54 54.6816 121.6 54.84C119.649 54.9993 117.177 55 113.8 55V56V57C117.144 57 119.712 57.0009 121.763 56.8333C123.826 56.6649 125.454 56.3212 126.902 55.5834L126.448 54.6924ZM113.8 56V55H19.2002V56V57H113.8V56ZM19.2002 56V55C15.8234 55 13.3507 54.9993 11.3997 54.84C9.46038 54.6816 8.12471 54.3715 7.00575 53.8014L6.55176 54.6924L6.09777 55.5834C7.54575 56.3212 9.17398 56.6649 11.237 56.8333C13.2883 57.0009 15.8564 57 19.2002 57V56ZM6.55176 54.6924L7.00576 53.8014C4.93609 52.7468 3.2532 51.0639 2.19862 48.9942L1.30762 49.4482L0.416617 49.9022C1.66295 52.3482 3.65178 54.3371 6.09775 55.5834L6.55176 54.6924ZM1.30762 49.4482L2.19862 48.9943C1.62848 47.8753 1.31839 46.5396 1.16002 44.6003C1.0007 42.6493 1 40.1766 1 36.7998H0H-1C-1 40.1436 -1.00085 42.7117 -0.833345 44.763C-0.664883 46.826 -0.321171 48.4543 0.416611 49.9022L1.30762 49.4482ZM0 36.7998H1V25.2002H0H-1V36.7998H0ZM0 25.2002H1C1 21.8234 1.0007 19.3507 1.16002 17.3997C1.31839 15.4604 1.62848 14.1247 2.19862 13.0057L1.30762 12.5518L0.416611 12.0978C-0.321171 13.5457 -0.664883 15.174 -0.833345 17.237C-1.00085 19.2883 -1 21.8564 -1 25.2002H0ZM1.30762 12.5518L2.19862 13.0058C3.2532 10.9361 4.93609 9.2532 7.00576 8.19862L6.55176 7.30762L6.09775 6.41662C3.65178 7.66295 1.66295 9.65178 0.416617 12.0978L1.30762 12.5518ZM6.55176 7.30762L7.00575 8.19862C8.12471 7.62848 9.46038 7.31839 11.3997 7.16002C13.3507 7.0007 15.8234 7 19.2002 7V6V5C15.8564 5 13.2883 4.99915 11.237 5.16666C9.17398 5.33512 7.54575 5.67883 6.09777 6.41661L6.55176 7.30762ZM19.2002 6V7H60.6563V6V5H19.2002V6ZM60.6563 6L61.3634 6.70711L67.3634 0.707107L66.6563 0L65.9491 -0.707107L59.9491 5.29289L60.6563 6ZM66.6563 0L65.9491 0.707107L71.9491 6.70711L72.6563 6L73.3634 5.29289L67.3634 -0.707107L66.6563 0Z" fill="#454545" mask="url(#path-1-inside-1_3451_973)"/>
<path d="M114.569 35.9999H108.359V35.6549L112.184 30.7049C112.664 30.0899 112.979 29.6249 113.129 29.2949C113.279 28.9649 113.354 28.5749 113.354 28.1399C113.354 26.9549 112.649 26.2199 111.494 26.2199C110.414 26.2199 109.634 27.0899 109.454 28.3349L108.584 28.1699C108.659 27.3449 108.974 26.6849 109.499 26.1599C110.024 25.6349 110.699 25.3799 111.494 25.3799C113.159 25.3799 114.314 26.4149 114.314 28.1699C114.314 28.9649 113.894 29.9099 113.039 31.0049L109.829 35.1599H114.569V35.9999Z" fill="white"/>
<path d="M100.395 26.8349C101.01 25.8599 101.91 25.3799 103.095 25.3799C104.28 25.3799 105.165 25.8599 105.78 26.8349C106.395 27.7949 106.71 29.0999 106.71 30.7499C106.71 32.3999 106.395 33.7049 105.78 34.6799C105.165 35.6399 104.28 36.1199 103.095 36.1199C101.91 36.1199 101.01 35.6399 100.395 34.6799C99.7805 33.7049 99.4805 32.3999 99.4805 30.7499C99.4805 29.0999 99.7805 27.7949 100.395 26.8349ZM105.045 27.4649C104.58 26.6399 103.92 26.2199 103.095 26.2199C102.27 26.2199 101.61 26.6399 101.145 27.4649C100.68 28.2899 100.44 29.3849 100.44 30.7499C100.44 32.1149 100.68 33.2099 101.145 34.0349C101.61 34.8599 102.27 35.2799 103.095 35.2799C103.92 35.2799 104.58 34.8599 105.045 34.0349C105.51 33.2099 105.75 32.1149 105.75 30.7499C105.75 29.3849 105.51 28.2899 105.045 27.4649Z" fill="white"/>
<path d="M98.238 25.8L94.083 36H93.108L97.128 26.34H92.418V25.5H98.238V25.8Z" fill="white"/>
<path d="M86.5479 35.9999H80.3379V35.6549L84.1629 30.7049C84.6429 30.0899 84.9579 29.6249 85.1079 29.2949C85.2579 28.9649 85.3329 28.5749 85.3329 28.1399C85.3329 26.9549 84.6279 26.2199 83.4729 26.2199C82.3929 26.2199 81.6129 27.0899 81.4329 28.3349L80.5629 28.1699C80.6379 27.3449 80.9529 26.6849 81.4779 26.1599C82.0029 25.6349 82.6779 25.3799 83.4729 25.3799C85.1379 25.3799 86.2929 26.4149 86.2929 28.1699C86.2929 28.9649 85.8729 29.9099 85.0179 31.0049L81.8079 35.1599H86.5479V35.9999Z" fill="white"/>
<path d="M77.2545 36H76.3245V33.585H71.6895V33.33L76.1145 25.5H77.2545V32.745H78.6495V33.585H77.2545V36ZM76.3245 26.82L73.0095 32.745H76.3245V26.82Z" fill="white"/>
<path d="M63.6572 26.8349C64.2722 25.8599 65.1722 25.3799 66.3572 25.3799C67.5422 25.3799 68.4272 25.8599 69.0422 26.8349C69.6572 27.7949 69.9722 29.0999 69.9722 30.7499C69.9722 32.3999 69.6572 33.7049 69.0422 34.6799C68.4272 35.6399 67.5422 36.1199 66.3572 36.1199C65.1722 36.1199 64.2722 35.6399 63.6572 34.6799C63.0422 33.7049 62.7422 32.3999 62.7422 30.7499C62.7422 29.0999 63.0422 27.7949 63.6572 26.8349ZM68.3072 27.4649C67.8422 26.6399 67.1822 26.2199 66.3572 26.2199C65.5322 26.2199 64.8722 26.6399 64.4072 27.4649C63.9422 28.2899 63.7022 29.3849 63.7022 30.7499C63.7022 32.1149 63.9422 33.2099 64.4072 34.0349C64.8722 34.8599 65.5322 35.2799 66.3572 35.2799C67.1822 35.2799 67.8422 34.8599 68.3072 34.0349C68.7722 33.2099 69.0122 32.1149 69.0122 30.7499C69.0122 29.3849 68.7722 28.2899 68.3072 27.4649Z" fill="white"/>
<path d="M53.8379 27.045L56.2679 25.5H56.5079V36H55.5779V27.09L53.8379 28.185V27.045Z" fill="white"/>
<path d="M45.6758 33.12L46.6058 32.985C46.7708 34.38 47.5658 35.28 48.9008 35.28C50.4158 35.28 51.2558 34.335 51.2558 32.79C51.2558 31.17 50.4008 30.285 48.9008 30.285C48.5558 30.285 48.2558 30.375 47.9708 30.555L47.5208 29.97L50.2358 26.34H46.2008V25.5H51.6908V25.755L48.8558 29.52C48.9458 29.49 49.0808 29.475 49.2458 29.475C50.0558 29.475 50.7458 29.775 51.3308 30.375C51.9158 30.96 52.2158 31.77 52.2158 32.79C52.2158 33.795 51.9158 34.59 51.3158 35.205C50.7308 35.82 49.9208 36.12 48.9008 36.12C47.1608 36.12 45.8708 34.995 45.6758 33.12Z" fill="white"/>
<path d="M41.0083 32.2199C40.0483 32.2199 39.2683 31.8899 38.6533 31.2449C38.0383 30.5849 37.7383 29.7749 37.7383 28.7999C37.7383 27.8249 38.0383 27.0149 38.6533 26.3699C39.2683 25.7099 40.0483 25.3799 41.0083 25.3799C41.9683 25.3799 42.7483 25.7099 43.3633 26.3699C43.9783 27.0149 44.2783 27.8249 44.2783 28.7999C44.2783 29.4299 44.0983 30.0749 43.7233 30.7349L40.6183 36.1199H39.6433L41.9833 31.9649C41.7583 32.1299 41.4433 32.2199 41.0083 32.2199ZM43.3183 28.7999C43.3183 28.0499 43.0933 27.4349 42.6583 26.9549C42.2233 26.4599 41.6833 26.2199 41.0083 26.2199C40.3333 26.2199 39.7783 26.4599 39.3433 26.9549C38.9083 27.4349 38.6983 28.0499 38.6983 28.7999C38.6983 30.3749 39.6433 31.3799 41.0083 31.3799C42.3733 31.3799 43.3183 30.3749 43.3183 28.7999Z" fill="white"/>
<path d="M36.4352 25.8L32.2802 36H31.3052L35.3252 26.34H30.6152V25.5H36.4352V25.8Z" fill="white"/>
<path d="M22.9209 26.8349C23.5359 25.8599 24.4359 25.3799 25.6209 25.3799C26.8059 25.3799 27.6909 25.8599 28.3059 26.8349C28.9209 27.7949 29.2359 29.0999 29.2359 30.7499C29.2359 32.3999 28.9209 33.7049 28.3059 34.6799C27.6909 35.6399 26.8059 36.1199 25.6209 36.1199C24.4359 36.1199 23.5359 35.6399 22.9209 34.6799C22.3059 33.7049 22.0059 32.3999 22.0059 30.7499C22.0059 29.0999 22.3059 27.7949 22.9209 26.8349ZM27.5709 27.4649C27.1059 26.6399 26.4459 26.2199 25.6209 26.2199C24.7959 26.2199 24.1359 26.6399 23.6709 27.4649C23.2059 28.2899 22.9659 29.3849 22.9659 30.7499C22.9659 32.1149 23.2059 33.2099 23.6709 34.0349C24.1359 34.8599 24.7959 35.2799 25.6209 35.2799C26.4459 35.2799 27.1059 34.8599 27.5709 34.0349C28.0359 33.2099 28.2759 32.1149 28.2759 30.7499C28.2759 29.3849 28.0359 28.2899 27.5709 27.4649Z" fill="white"/>
</svg>
