<svg width="80" height="62" viewBox="0 0 80 62" fill="none" xmlns="http://www.w3.org/2000/svg">
<path d="M0.439453 25.1405L20.2174 0L39.629 25.1405H0.439453Z" fill="url(#paint0_linear_3576_1333)"/>
<path opacity="0.3" d="M39.6309 25.1405L59.7819 0L79.5598 25.1405H39.6309Z" fill="url(#paint1_linear_3576_1333)"/>
<path opacity="0.3" d="M20.4062 -8.7738e-05L39.8179 25.1404L59.5958 -8.7738e-05H20.4062Z" fill="url(#paint2_linear_3576_1333)"/>
<path opacity="0.3" d="M39.9987 61.7422L0.439452 25.1406L39.9987 25.1406L39.9987 61.7422Z" fill="url(#paint3_linear_3576_1333)"/>
<path opacity="0.3" d="M40.0013 61.7422L79.5605 25.1406L40.0013 25.1406L40.0013 61.7422Z" fill="url(#paint4_linear_3576_1333)"/>
<defs>
<linearGradient id="paint0_linear_3576_1333" x1="24.6448" y1="-0.908034" x2="24.6448" y2="25" gradientUnits="userSpaceOnUse">
<stop stop-color="white" stop-opacity="0.1"/>
<stop offset="1" stop-color="white"/>
</linearGradient>
<linearGradient id="paint1_linear_3576_1333" x1="45.2284" y1="50.2809" x2="27.8082" y2="31.6637" gradientUnits="userSpaceOnUse">
<stop stop-color="white"/>
<stop offset="1" stop-color="white" stop-opacity="0"/>
</linearGradient>
<linearGradient id="paint2_linear_3576_1333" x1="61.4271" y1="-2.79348" x2="25.3649" y2="26.6538" gradientUnits="userSpaceOnUse">
<stop offset="0.161622" stop-color="white"/>
<stop offset="0.807692" stop-color="white" stop-opacity="0"/>
</linearGradient>
<linearGradient id="paint3_linear_3576_1333" x1="35.4395" y1="22.5001" x2="35.9319" y2="82.0764" gradientUnits="userSpaceOnUse">
<stop stop-color="white" stop-opacity="0"/>
<stop offset="0.673827" stop-color="white"/>
<stop offset="1" stop-color="white" stop-opacity="0"/>
</linearGradient>
<linearGradient id="paint4_linear_3576_1333" x1="62.9235" y1="40.6686" x2="48.4395" y2="22.5001" gradientUnits="userSpaceOnUse">
<stop stop-color="white"/>
<stop offset="1" stop-color="white" stop-opacity="0"/>
</linearGradient>
</defs>
</svg>
