<svg width="80" height="62" viewBox="0 0 80 62" fill="none" xmlns="http://www.w3.org/2000/svg">
<path opacity="0.3" d="M0.441406 25.1405L20.2193 0L39.631 25.1405H0.441406Z" fill="url(#paint0_linear_3576_1547)"/>
<path opacity="0.3" d="M39.6328 25.1405L59.7839 0L79.5618 25.1405H39.6328Z" fill="url(#paint1_linear_3576_1547)"/>
<path opacity="0.3" d="M20.4062 -8.7738e-05L39.8179 25.1404L59.5958 -8.7738e-05H20.4062Z" fill="url(#paint2_linear_3576_1547)"/>
<path d="M39.9987 61.7422L0.439452 25.1406L39.9987 25.1406L39.9987 61.7422Z" fill="url(#paint3_linear_3576_1547)"/>
<path opacity="0.3" d="M40.0013 61.7422L79.5605 25.1406L40.0013 25.1406L40.0013 61.7422Z" fill="url(#paint4_linear_3576_1547)"/>
<defs>
<linearGradient id="paint0_linear_3576_1547" x1="24.6467" y1="-0.908034" x2="24.6467" y2="47.5" gradientUnits="userSpaceOnUse">
<stop stop-color="white" stop-opacity="0"/>
<stop offset="1" stop-color="white"/>
</linearGradient>
<linearGradient id="paint1_linear_3576_1547" x1="45.2303" y1="50.2809" x2="27.8102" y2="31.6637" gradientUnits="userSpaceOnUse">
<stop stop-color="white"/>
<stop offset="1" stop-color="white" stop-opacity="0"/>
</linearGradient>
<linearGradient id="paint2_linear_3576_1547" x1="61.4271" y1="-2.79348" x2="25.3649" y2="26.6538" gradientUnits="userSpaceOnUse">
<stop offset="0.161622" stop-color="white"/>
<stop offset="0.807692" stop-color="white" stop-opacity="0"/>
</linearGradient>
<linearGradient id="paint3_linear_3576_1547" x1="-0.989364" y1="39.1353" x2="39.7776" y2="39.1353" gradientUnits="userSpaceOnUse">
<stop stop-color="white" stop-opacity="0.1"/>
<stop offset="1" stop-color="white"/>
</linearGradient>
<linearGradient id="paint4_linear_3576_1547" x1="62.9235" y1="40.6686" x2="48.4395" y2="22.5001" gradientUnits="userSpaceOnUse">
<stop stop-color="white"/>
<stop offset="1" stop-color="white" stop-opacity="0"/>
</linearGradient>
</defs>
</svg>
