<svg width="24" height="24" viewBox="0 0 24 24" fill="none" xmlns="http://www.w3.org/2000/svg">
<path d="M23.2061 10.4785L23.0605 10.625L10.8916 22.8525L10.5371 23.209L10.1826 22.8525L0.351562 12.9736L0 12.6201L0.352539 12.2676L12.4688 0.146484L12.6152 0H23.2061V10.4785ZM1.41211 12.6211L10.5361 21.791L22.2061 10.0645V1H13.0293L1.41211 12.6211ZM17.7061 4.5C18.2583 4.5 18.7061 4.94772 18.7061 5.5C18.7061 6.05228 18.2583 6.5 17.7061 6.5C17.1538 6.5 16.7061 6.05228 16.7061 5.5C16.7061 4.94772 17.1538 4.5 17.7061 4.5Z" fill="url(#paint0_linear_3073_1905)"/>
<defs>
<linearGradient id="paint0_linear_3073_1905" x1="14.3331" y1="-0.838272" x2="14.3331" y2="29.0246" gradientUnits="userSpaceOnUse">
<stop stop-color="white"/>
<stop offset="0.388049" stop-color="white" stop-opacity="0.4"/>
</linearGradient>
</defs>
</svg>
