<svg width="28" height="25" viewBox="0 0 28 25" fill="none" xmlns="http://www.w3.org/2000/svg">
<path d="M26.082 0H24.9433C23.9973 0 23.1079 0.509604 22.4373 1.19001L18.9964 4.75724L18.2336 4.01523L17.3979 4.87904L19.7592 7.28846L20.5936 6.44425L19.8322 5.67005L23.2731 2.13642C23.7192 1.68421 24.3127 1.40001 24.9433 1.40001H26.082C26.7333 1.40001 26.6231 2.00762 26.6231 2.66982V6.87265C26.6231 7.53626 26.7333 8.40007 26.082 8.40007H25.2462V4.82304L23.7206 3.44683L22.8738 4.29523L23.8693 5.32004V10.0801C23.8693 10.5547 23.6063 11.0181 23.2758 11.3541L11.1839 23.6112C10.9539 23.845 10.5602 23.845 10.3302 23.6112L1.36245 14.5013C1.1325 14.2675 1.12837 13.8867 1.35831 13.6529L13.4103 1.66181C13.7408 1.32721 14.1938 1.40001 14.6606 1.40001H19.342L20.3499 2.16022L21.1843 1.34401L19.8322 0H14.6606C13.8716 0 13.1308 0.147001 12.5732 0.714006L0.518404 12.8885C-0.172801 13.5913 -0.172801 14.6917 0.518404 15.3945L9.47791 24.4834C9.82351 24.8348 10.2765 25 10.7309 25C11.1853 25 11.6383 24.8194 11.9839 24.468L24.2108 12.2081C24.767 11.6397 25.2462 10.8823 25.2462 10.0815V9.80008H26.082C27.3845 9.80008 28 8.19707 28 6.87265V2.66982C28 1.34681 27.3845 0 26.082 0Z" fill="url(#paint0_linear_3450_948)"/>
<defs>
<linearGradient id="paint0_linear_3450_948" x1="17.7927" y1="-0.90296" x2="17.7927" y2="31.2644" gradientUnits="userSpaceOnUse">
<stop stop-color="white" stop-opacity="0.85"/>
<stop offset="0.618731" stop-color="white" stop-opacity="0.4"/>
</linearGradient>
</defs>
</svg>
