<svg width="20" height="18" viewBox="0 0 20 18" fill="none" xmlns="http://www.w3.org/2000/svg">
<path d="M0.704 2.672L4.592 0.199999H4.976V17H3.488V2.744L0.704 4.496V2.672ZM13.9048 10.952C12.3688 10.952 11.1208 10.424 10.1367 9.392C9.15275 8.336 8.67275 7.04 8.67275 5.48C8.67275 3.92 9.15275 2.624 10.1367 1.592C11.1208 0.535999 12.3688 0.0079999 13.9048 0.0079999C15.4408 0.0079999 16.6888 0.535999 17.6728 1.592C18.6568 2.624 19.1368 3.92 19.1368 5.48C19.1368 6.488 18.8488 7.52 18.2488 8.576L13.2808 17.192H11.7208L15.4648 10.544C15.1048 10.808 14.6008 10.952 13.9048 10.952ZM17.6008 5.48C17.6008 4.28 17.2408 3.296 16.5448 2.528C15.8488 1.736 14.9848 1.352 13.9048 1.352C12.8248 1.352 11.9368 1.736 11.2408 2.528C10.5448 3.296 10.2088 4.28 10.2088 5.48C10.2088 8 11.7208 9.608 13.9048 9.608C16.0888 9.608 17.6008 8 17.6008 5.48Z" fill="url(#paint0_linear_3071_1650)"/>
<defs>
<linearGradient id="paint0_linear_3071_1650" x1="21" y1="-5.99435" x2="20.9979" y2="17" gradientUnits="userSpaceOnUse">
<stop offset="0.0985599" stop-color="white"/>
<stop offset="1" stop-color="white" stop-opacity="0.4"/>
</linearGradient>
</defs>
</svg>
