<svg width="20" height="20" viewBox="0 0 20 20" fill="none" xmlns="http://www.w3.org/2000/svg">
<path d="M20 15.3086H13.3525L10.0908 20L6.55664 15.3086H0V2H20V15.3086ZM5.5 7C4.67157 7 4 7.67157 4 8.5C4 9.32843 4.67157 10 5.5 10C6.32843 10 7 9.32843 7 8.5C7 7.67157 6.32843 7 5.5 7ZM10 7C9.17157 7 8.5 7.67157 8.5 8.5C8.5 9.32843 9.17157 10 10 10C10.8284 10 11.5 9.32843 11.5 8.5C11.5 7.67157 10.8284 7 10 7ZM14.5 7C13.6716 7 13 7.67157 13 8.5C13 9.32843 13.6716 10 14.5 10C15.3284 10 16 9.32843 16 8.5C16 7.67157 15.3284 7 14.5 7Z" fill="url(#paint0_linear_3078_330)"/>
<defs>
<linearGradient id="paint0_linear_3078_330" x1="9.65517" y1="0.615385" x2="9.65517" y2="20" gradientUnits="userSpaceOnUse">
<stop stop-color="white"/>
<stop offset="1" stop-color="white" stop-opacity="0.5"/>
</linearGradient>
</defs>
</svg>
