<svg width="23" height="26" viewBox="0 0 23 26" fill="none" xmlns="http://www.w3.org/2000/svg">
<path d="M20 3H3C1.89543 3 1 3.89543 1 5V15.7872C1 16.8918 1.89543 17.7872 3 17.7872H9.01222V24L15 17.7872H20C21.1046 17.7872 22 16.8918 22 15.7872V5C22 3.89543 21.1046 3 20 3Z" fill="url(#paint0_linear_3350_645)" stroke="url(#paint1_linear_3350_645)"/>
<path d="M11.5963 15.5888L10.8892 14.8817L14.2783 11.4926H7.00009V10.4927H14.2783L10.8892 7.10356L11.5963 6.39646L16.1925 10.9927L11.5963 15.5888Z" fill="url(#paint2_linear_3350_645)"/>
<defs>
<linearGradient id="paint0_linear_3350_645" x1="13.1379" y1="20.9091" x2="13.1192" y2="1.66948e-05" gradientUnits="userSpaceOnUse">
<stop stop-color="white" stop-opacity="0.05"/>
<stop offset="0.785405" stop-color="white" stop-opacity="0.15"/>
</linearGradient>
<linearGradient id="paint1_linear_3350_645" x1="11.5" y1="3" x2="11.5" y2="24" gradientUnits="userSpaceOnUse">
<stop stop-color="white"/>
<stop offset="1" stop-color="white" stop-opacity="0.5"/>
</linearGradient>
<linearGradient id="paint2_linear_3350_645" x1="14.0586" y1="8.11323" x2="8.83968" y2="13.3322" gradientUnits="userSpaceOnUse">
<stop stop-color="white"/>
<stop offset="1" stop-color="white" stop-opacity="0.5"/>
</linearGradient>
</defs>
</svg>
