<svg width="20" height="20" viewBox="0 0 20 20" fill="none" xmlns="http://www.w3.org/2000/svg">
<g clip-path="url(#clip0_0_12)">
<path opacity="0.3" d="M17.9681 0.63324H2.0312C1.24998 0.63324 0.625 1.25822 0.625 1.96132V17.9763C0.625 18.6794 1.24998 19.3044 2.0312 19.3044H17.9681C18.7493 19.3044 19.3743 18.6794 19.3743 17.9763V1.96132C19.3743 1.25822 18.7493 0.63324 17.9681 0.63324ZM6.17167 16.5701H3.4374V7.66423H6.17167V16.5701ZM4.84359 6.41428C3.98425 6.41428 3.20303 5.71118 3.20303 4.77371C3.20303 3.83625 3.90613 3.13315 4.84359 3.13315C5.70294 3.13315 6.48416 3.83625 6.48416 4.77371C6.48416 5.71118 5.70294 6.41428 4.84359 6.41428ZM16.64 16.492H13.9058V12.1172C13.9058 11.1016 13.9058 9.6954 12.4214 9.6954C10.9371 9.6954 10.7809 10.8672 10.7809 11.9609V16.4139H8.0466V7.66423H10.6246V8.83606H10.7028C11.0934 8.13296 12.0308 7.35174 13.3589 7.35174C16.1713 7.35174 16.7182 9.22667 16.7182 11.6485V16.492H16.64Z" fill="url(#paint0_linear_0_12)"/>
<path d="M6.17189 16.5702H3.43761V7.66432H6.17189V16.5702ZM4.84381 6.41437C3.98447 6.41437 3.20325 5.71127 3.20325 4.7738C3.20325 3.83634 3.90635 3.13324 4.84381 3.13324C5.70315 3.13324 6.48438 3.83634 6.48438 4.7738C6.48438 5.71127 5.70315 6.41437 4.84381 6.41437ZM16.6402 16.4921H13.906V12.1173C13.906 11.1017 13.906 9.6955 12.4217 9.6955C10.9373 9.6955 10.7811 10.8673 10.7811 11.961V16.414H8.04682V7.66432H10.6248V8.83615H10.703C11.0936 8.13305 12.031 7.35183 13.3591 7.35183C16.1715 7.35183 16.7184 9.22676 16.7184 11.6486V16.4921H16.6402Z" fill="url(#paint1_linear_0_12)"/>
</g>
<defs>
<linearGradient id="paint0_linear_0_12" x1="10.9694" y1="20.1531" x2="10.9503" y2="0.63326" gradientUnits="userSpaceOnUse">
<stop stop-color="white" stop-opacity="0"/>
<stop offset="0.785405" stop-color="white"/>
</linearGradient>
<linearGradient id="paint1_linear_0_12" x1="30.7458" y1="32.0864" x2="2.44243" y2="3.50427" gradientUnits="userSpaceOnUse">
<stop offset="0.0146435" stop-color="white" stop-opacity="0"/>
<stop offset="0.775187" stop-color="white"/>
</linearGradient>
<clipPath id="clip0_0_12">
<rect width="20" height="20" fill="white"/>
</clipPath>
</defs>
</svg>
