<svg width="25" height="11" viewBox="0 0 25 11" fill="none" xmlns="http://www.w3.org/2000/svg">
<path d="M19.4445 11C16.4053 11 14.2025 8.38215 12.0725 5.85229C10.0163 3.40739 8.07199 1.10003 5.55561 1.10003C3.10554 1.10003 1.11118 3.07445 1.11118 5.50002C1.11118 7.92559 3.10554 9.9 5.55561 9.9C7.56949 9.9 9.24699 8.34884 10.6217 6.82771C10.8268 6.60213 11.1773 6.5828 11.4051 6.78689C11.633 6.98992 11.6525 7.33689 11.4464 7.56247C9.9088 9.26188 8.00553 11 5.55554 11C2.49138 11 0 8.53355 0 5.49998C0 2.46641 2.49133 0 5.55554 0C8.5947 0 10.7975 2.61785 12.9275 5.14771C14.9837 7.59261 16.928 9.89997 19.4444 9.89997C21.8945 9.89997 23.8888 7.92555 23.8888 5.49998C23.8888 3.07441 21.8945 1.1 19.4444 1.1C17.4305 1.1 15.753 2.65116 14.3783 4.17229C14.1732 4.39787 13.8227 4.41721 13.5949 4.21311C13.367 4.01008 13.3475 3.66311 13.5536 3.43753C15.0912 1.73811 16.9945 3.82899e-05 19.4445 3.82899e-05C22.5086 3.82899e-05 25 2.46645 25 5.50002C25 8.53359 22.5087 11 19.4445 11Z" fill="url(#paint0_linear_3072_1681)"/>
<defs>
<linearGradient id="paint0_linear_3072_1681" x1="15.4412" y1="-0.397303" x2="15.4412" y2="13.7564" gradientUnits="userSpaceOnUse">
<stop offset="0.161622" stop-color="white"/>
<stop offset="0.807692" stop-color="white" stop-opacity="0.4"/>
</linearGradient>
</defs>
</svg>
