<svg width="30" height="21" viewBox="0 0 30 21" fill="none" xmlns="http://www.w3.org/2000/svg">
<path d="M16.0752 0C19.6847 0.000178648 22.6686 2.82985 22.9189 6.44824C26.5018 6.70033 29.3006 9.72037 29.3008 13.3643C29.3008 17.1934 26.2285 20.3006 22.4355 20.3008H5.19727C2.64866 20.3007 0.585946 18.2131 0.585938 15.6416C0.586054 13.2543 2.38012 11.255 4.7168 11.0107C4.94185 8.59813 6.83995 6.6764 9.22949 6.44531C9.4799 2.82707 12.4642 0 16.0752 0ZM16.0752 1.0166C13.021 1.0166 10.4848 3.38665 10.2373 6.44727C12.7832 6.71296 14.7344 8.88982 14.7344 11.4922V11.5215L14.7305 11.5312C14.7106 11.7921 14.4974 11.9989 14.2305 11.999C13.9503 11.999 13.7258 11.7713 13.7256 11.4922C13.7255 9.25036 11.928 7.43555 9.71387 7.43555C7.49982 7.43582 5.70318 9.25064 5.70312 11.4922C5.70295 11.7713 5.47847 11.999 5.19824 11.999C3.20915 11.9992 1.59484 13.6262 1.59473 15.6416C1.59474 17.657 3.20901 19.285 5.19824 19.2852H22.4346C25.668 19.285 28.291 16.6363 28.291 13.3643C28.2909 10.0926 25.6681 7.4455 22.4346 7.44531C22.1544 7.4451 21.9307 7.21657 21.9307 6.9375C21.9307 3.66436 19.3111 1.01672 16.0752 1.0166Z" fill="url(#paint0_linear_3078_282)"/>
<defs>
<linearGradient id="paint0_linear_3078_282" x1="18.8328" y1="-0.733232" x2="18.8328" y2="25.3877" gradientUnits="userSpaceOnUse">
<stop offset="0.161622" stop-color="white"/>
<stop offset="0.807692" stop-color="white" stop-opacity="0.4"/>
</linearGradient>
</defs>
</svg>
