<svg width="23" height="18" viewBox="0 0 23 18" fill="none" xmlns="http://www.w3.org/2000/svg">
<path d="M23 18H0V0H23V18ZM21.9795 17H22V16.9727L21.9795 17ZM1.63477 17H21.248L11.4678 9.40039L1.63477 17ZM12.2852 8.76855L22 16.3174V1.2627L12.2852 8.76855ZM1 16.2266L10.6523 8.76758L1 1.26562V16.2266ZM11.4697 8.13574L20.7061 1H2.28711L11.4697 8.13574Z" fill="url(#paint0_linear_3068_1536)"/>
<path d="M12 8.25684H22.5049V9.25684H12V17.752H11V9.25684H0.504883V8.25684H11V0.751953H12V8.25684Z" fill="url(#paint1_linear_3068_1536)"/>
<defs>
<linearGradient id="paint0_linear_3068_1536" x1="0" y1="0" x2="0" y2="18" gradientUnits="userSpaceOnUse">
<stop stop-color="white" stop-opacity="0.8"/>
<stop offset="1" stop-color="white" stop-opacity="0.1"/>
</linearGradient>
<linearGradient id="paint1_linear_3068_1536" x1="14.0931" y1="0.13794" x2="14.0931" y2="22.0118" gradientUnits="userSpaceOnUse">
<stop offset="0.161622" stop-color="white"/>
<stop offset="0.807692" stop-color="white" stop-opacity="0.4"/>
</linearGradient>
</defs>
</svg>
